<svg width="32" height="32" viewBox="0 0 32 32" fill="none" xmlns="http://www.w3.org/2000/svg">
<path d="M11.9987 11.9285C11.9987 10.0758 10.7385 10.0758 10.7385 10.0758H5.56348V14.0477H10.4177C11.256 14.0477 11.9987 13.7786 11.9987 11.9285ZM10.7385 16.793H5.56348V21.5489H10.5057C11.2483 21.5282 12.6223 21.2902 12.6223 19.2357C12.6145 16.7775 10.7385 16.793 10.7385 16.793ZM24.0048 14.0477C21.2543 14.0477 20.8713 16.7905 20.8713 16.7905H26.7191C26.7191 16.7905 26.7554 14.0477 24.0048 14.0477Z" fill="white"/>
<path d="M28.2274 0H3.77521C2.77396 0 1.81372 0.397744 1.10573 1.10573C0.397744 1.81372 0 2.77396 0 3.77521V28.2248C0 29.226 0.397744 30.1863 1.10573 30.8943C1.81372 31.6023 2.77396 32 3.77521 32H28.2248C29.226 32 30.1863 31.6023 30.8943 30.8943C31.6023 30.1863 32 29.226 32 28.2248V3.77521C32 2.77441 31.6026 1.81456 30.8952 1.10665C30.1878 0.398733 29.2282 0.000685949 28.2274 0ZM20.1051 7.95925H27.4485V10.1535H20.1051V7.95925ZM16.392 19.4582C16.392 24.8921 10.7383 24.7135 10.7383 24.7135H1.47489V6.9113H10.7383C13.5535 6.9113 15.7762 8.46382 15.7762 11.6517C15.7762 14.8395 13.0593 15.0387 13.0593 15.0387C16.6404 15.0387 16.392 19.4582 16.392 19.4582ZM30.1292 19.1684H20.9176C20.9176 22.4753 24.0511 22.2735 24.0511 22.2735C27.0087 22.2735 26.8974 20.3587 26.8974 20.3587H30.0257C30.0257 25.4406 23.9347 25.0913 23.9347 25.0913C16.6249 25.0913 17.0958 18.2861 17.0958 18.2861C17.0958 18.2861 17.0958 11.4472 23.9347 11.4472C31.1409 11.4421 30.1318 19.1684 30.1318 19.1684H30.1292Z" fill="white"/>
</svg>
