<svg width="13" height="15" viewBox="0 0 13 15" fill="none" xmlns="http://www.w3.org/2000/svg">
<path d="M12.5051 13.886C12.1943 14.1968 11.7728 14.3713 11.3333 14.3713C10.8938 14.3713 10.4724 14.1968 10.1616 13.886L6.50069 9.70173L2.8398 13.8846C2.68638 14.0406 2.5036 14.1646 2.30202 14.2495C2.10043 14.3345 1.88402 14.3787 1.66527 14.3796C1.44651 14.3804 1.22975 14.338 1.02748 14.2547C0.825206 14.1714 0.641428 14.0489 0.486745 13.8942C0.332063 13.7395 0.209537 13.5557 0.126235 13.3535C0.0429333 13.1512 0.000503849 12.9344 0.00139459 12.7157C0.00228533 12.4969 0.0464784 12.2805 0.131425 12.0789C0.216371 11.8773 0.34039 11.6946 0.496327 11.5412L4.30498 7.19117L0.494946 2.83842C0.339009 2.685 0.21499 2.50222 0.130044 2.30064C0.0450976 2.09905 0.000904477 1.88264 1.3739e-05 1.66389C-0.000876999 1.44513 0.0415525 1.22837 0.124854 1.0261C0.208156 0.823825 0.330682 0.640047 0.485364 0.485364C0.640047 0.330682 0.823825 0.208156 1.0261 0.124854C1.22837 0.0415525 1.44513 -0.000876999 1.66389 1.3739e-05C1.88264 0.000904477 2.09905 0.0450976 2.30064 0.130044C2.50222 0.21499 2.685 0.339009 2.83842 0.494946L6.50069 4.6806L10.1616 0.494946C10.315 0.339009 10.4978 0.21499 10.6994 0.130044C10.901 0.0450976 11.1174 0.000904477 11.3361 1.3739e-05C11.5549 -0.000876999 11.7716 0.0415525 11.9739 0.124854C12.1762 0.208156 12.36 0.330682 12.5146 0.485364C12.6693 0.640047 12.7918 0.823825 12.8751 1.0261C12.9584 1.22837 13.0009 1.44513 13 1.66389C12.9991 1.88264 12.9549 2.09905 12.87 2.30064C12.785 2.50222 12.661 2.685 12.5051 2.83842L8.6964 7.19117L12.5051 11.5412C12.6591 11.6951 12.7814 11.8778 12.8648 12.079C12.9481 12.2802 12.9911 12.4958 12.9911 12.7136C12.9911 12.9314 12.9481 13.147 12.8648 13.3482C12.7814 13.5493 12.6591 13.7321 12.5051 13.886Z" fill="white"/>
</svg>
