<svg width="32" height="32" viewBox="0 0 32 32" fill="none" xmlns="http://www.w3.org/2000/svg">
<path d="M16 0.394775C7.16 0.394775 0 7.55478 0 16.3948C0 23.4748 4.58 29.4548 10.94 31.5748C11.74 31.7148 12.04 31.2348 12.04 30.8148C12.04 30.4348 12.02 29.1748 12.02 27.8348C8 28.5748 6.96 26.8548 6.64 25.9548C6.46 25.4948 5.68 24.0748 5 23.6948C4.44 23.3948 3.64 22.6548 4.98 22.6348C6.24 22.6148 7.14 23.7948 7.44 24.2748C8.88 26.6948 11.18 26.0148 12.1 25.5948C12.24 24.5548 12.66 23.8548 13.12 23.4548C9.56 23.0548 5.84 21.6748 5.84 15.5548C5.84 13.8148 6.46 12.3748 7.48 11.2548C7.32 10.8548 6.76 9.21478 7.64 7.01478C7.64 7.01478 8.98 6.59478 12.04 8.65478C13.32 8.29478 14.68 8.11478 16.04 8.11478C17.4 8.11478 18.76 8.29478 20.04 8.65478C23.1 6.57478 24.44 7.01478 24.44 7.01478C25.32 9.21478 24.76 10.8548 24.6 11.2548C25.62 12.3748 26.24 13.7948 26.24 15.5548C26.24 21.6948 22.5 23.0548 18.94 23.4548C19.52 23.9548 20.02 24.9148 20.02 26.4148C20.02 28.5548 20 30.2748 20 30.8148C20 31.2348 20.3 31.7348 21.1 31.5748C24.2765 30.5028 27.0367 28.4615 28.9921 25.7383C30.9474 23.0151 31.9994 19.7473 32 16.3948C32 7.55478 24.84 0.394775 16 0.394775Z" fill="white"/>
</svg>
