<svg width="450" height="250" viewBox="0 0 450 250" fill="none" xmlns="http://www.w3.org/2000/svg">
<rect width="450" height="250" rx="10.6038" fill="url(#paint0_linear_520_208)"/>
<path d="M211.314 116.87H215.786L220.509 128.394H220.71L225.433 116.87H229.905V134.022H226.388V122.858H226.246L221.807 133.938H219.412L214.973 122.816H214.831V134.022H211.314V116.87ZM236.494 134.265C235.673 134.265 234.942 134.122 234.3 133.837C233.658 133.547 233.15 133.12 232.776 132.556C232.407 131.987 232.223 131.278 232.223 130.429C232.223 129.714 232.354 129.114 232.617 128.628C232.879 128.143 233.236 127.752 233.689 127.456C234.141 127.16 234.655 126.937 235.23 126.786C235.81 126.635 236.419 126.529 237.055 126.468C237.803 126.39 238.406 126.317 238.864 126.25C239.322 126.177 239.654 126.071 239.861 125.932C240.067 125.792 240.171 125.586 240.171 125.312V125.262C240.171 124.731 240.003 124.321 239.668 124.031C239.339 123.74 238.87 123.595 238.261 123.595C237.619 123.595 237.108 123.738 236.729 124.022C236.349 124.302 236.098 124.653 235.975 125.078L232.675 124.81C232.843 124.028 233.172 123.352 233.664 122.783C234.155 122.208 234.789 121.767 235.565 121.46C236.346 121.147 237.251 120.991 238.278 120.991C238.993 120.991 239.677 121.075 240.33 121.242C240.989 121.41 241.572 121.669 242.08 122.021C242.594 122.373 242.999 122.825 243.294 123.378C243.59 123.925 243.738 124.581 243.738 125.346V134.022H240.355V132.238H240.254C240.048 132.64 239.771 132.994 239.425 133.302C239.079 133.603 238.663 133.84 238.178 134.013C237.692 134.181 237.131 134.265 236.494 134.265ZM237.516 131.802C238.041 131.802 238.504 131.699 238.906 131.493C239.308 131.28 239.624 130.996 239.852 130.638C240.081 130.281 240.196 129.876 240.196 129.424V128.059C240.084 128.132 239.931 128.199 239.735 128.26C239.545 128.316 239.33 128.369 239.09 128.419C238.85 128.464 238.61 128.506 238.37 128.545C238.13 128.578 237.912 128.609 237.717 128.637C237.298 128.698 236.932 128.796 236.62 128.93C236.307 129.064 236.064 129.245 235.891 129.474C235.718 129.698 235.632 129.977 235.632 130.312C235.632 130.797 235.807 131.169 236.159 131.426C236.517 131.677 236.969 131.802 237.516 131.802ZM246.506 134.022V121.158H249.906V123.428H250.057C250.325 122.674 250.772 122.079 251.397 121.644C252.022 121.209 252.77 120.991 253.641 120.991C254.523 120.991 255.274 121.211 255.894 121.652C256.514 122.088 256.927 122.68 257.133 123.428H257.267C257.53 122.691 258.004 122.102 258.691 121.661C259.383 121.214 260.201 120.991 261.145 120.991C262.345 120.991 263.32 121.373 264.068 122.138C264.821 122.897 265.198 123.975 265.198 125.371V134.022H261.639V126.074C261.639 125.36 261.449 124.824 261.07 124.466C260.69 124.109 260.215 123.93 259.646 123.93C258.998 123.93 258.493 124.137 258.13 124.55C257.767 124.958 257.586 125.496 257.586 126.166V134.022H254.127V125.999C254.127 125.368 253.946 124.865 253.583 124.491C253.225 124.117 252.754 123.93 252.167 123.93C251.771 123.93 251.414 124.031 251.095 124.232C250.783 124.427 250.534 124.704 250.35 125.061C250.166 125.413 250.074 125.826 250.074 126.3V134.022H246.506ZM271.684 134.265C270.864 134.265 270.132 134.122 269.49 133.837C268.848 133.547 268.34 133.12 267.966 132.556C267.598 131.987 267.413 131.278 267.413 130.429C267.413 129.714 267.545 129.114 267.807 128.628C268.069 128.143 268.427 127.752 268.879 127.456C269.331 127.16 269.845 126.937 270.42 126.786C271 126.635 271.609 126.529 272.246 126.468C272.994 126.39 273.597 126.317 274.054 126.25C274.512 126.177 274.844 126.071 275.051 125.932C275.258 125.792 275.361 125.586 275.361 125.312V125.262C275.361 124.731 275.193 124.321 274.858 124.031C274.529 123.74 274.06 123.595 273.451 123.595C272.809 123.595 272.299 123.738 271.919 124.022C271.539 124.302 271.288 124.653 271.165 125.078L267.866 124.81C268.033 124.028 268.362 123.352 268.854 122.783C269.345 122.208 269.979 121.767 270.755 121.46C271.536 121.147 272.441 120.991 273.468 120.991C274.183 120.991 274.867 121.075 275.52 121.242C276.179 121.41 276.762 121.669 277.27 122.021C277.784 122.373 278.189 122.825 278.485 123.378C278.781 123.925 278.928 124.581 278.928 125.346V134.022H275.545V132.238H275.445C275.238 132.64 274.962 132.994 274.616 133.302C274.269 133.603 273.853 133.84 273.368 134.013C272.882 134.181 272.321 134.265 271.684 134.265ZM272.706 131.802C273.231 131.802 273.694 131.699 274.096 131.493C274.498 131.28 274.814 130.996 275.043 130.638C275.272 130.281 275.386 129.876 275.386 129.424V128.059C275.274 128.132 275.121 128.199 274.925 128.26C274.736 128.316 274.521 128.369 274.281 128.419C274.04 128.464 273.8 128.506 273.56 128.545C273.32 128.578 273.103 128.609 272.907 128.637C272.488 128.698 272.123 128.796 271.81 128.93C271.497 129.064 271.255 129.245 271.081 129.474C270.908 129.698 270.822 129.977 270.822 130.312C270.822 130.797 270.998 131.169 271.349 131.426C271.707 131.677 272.159 131.802 272.706 131.802Z" fill="#12AB69"/>
<path d="M176.04 137.341V126.708L177.577 125.608L179.358 124.699L183.061 123.145L186.904 122.132L188.913 121.677L190.887 121.398L194.433 122.341L196.145 122.813L197.717 123.477L199.289 124.123L200.966 124.944L202.503 125.852L203.883 126.813V137.293C203.852 139.19 202.458 140.787 200.584 141.074L200.359 141.109C200.24 141.127 200.119 141.136 199.998 141.137L185.926 141.171L179.498 145.154L179.481 141.136L179.104 141.043C177.531 140.654 176.34 139.366 176.075 137.767C176.051 137.626 176.04 137.484 176.04 137.341Z" fill="white" stroke="white" stroke-width="0.0349349"/>
<path d="M178.928 145.718V141.567C176.929 141.061 175.45 139.315 175.45 137.214V117.951C175.45 115.471 177.526 113.446 180.121 113.446H189.982H199.844C202.387 113.446 204.463 115.471 204.463 117.951V137.239C204.463 139.72 202.387 141.744 199.844 141.744H186.116L179.317 145.946C179.135 146.022 178.928 145.921 178.928 145.718Z" stroke="#12AB69" stroke-width="1.14178" stroke-miterlimit="10"/>
<path d="M205.995 122.719C205.995 122.719 203.744 119.82 193.84 116.987C186.005 114.744 178.348 114.82 175.167 115.204C175.167 115.204 175.068 115.283 174.808 115.634C174.808 115.634 184.191 114.675 194.669 118.233C198.52 119.542 203.655 121.177 205.78 123.89L205.995 122.719Z" fill="#FAB355"/>
<path d="M188.667 121.827C197.836 120.258 203.499 119.269 206.397 120.762C206.64 118.449 205.816 116.776 205.056 115.911C201.818 112.222 193.924 109.196 189.892 109.196C185.947 109.196 178.529 110.956 174.784 115.911C171.763 119.905 174.904 127.757 174.904 127.757C174.904 127.757 177.955 123.66 188.667 121.827Z" fill="url(#paint1_linear_520_208)"/>
<path d="M173.639 122.7C173.639 122.7 175.88 119.805 185.737 116.974C193.531 114.737 201.155 114.809 204.316 115.194C204.316 115.194 204.416 115.273 204.674 115.623C204.674 115.623 195.336 114.665 184.908 118.22C181.076 119.527 175.965 121.16 173.849 123.87L173.639 122.7Z" fill="#FAB355"/>
<path d="M206.44 120.513C206.44 120.596 206.44 120.679 206.437 120.762C206.433 121.409 206.377 122.056 206.29 122.681C206.238 123.086 206.17 123.477 206.095 123.857C205.66 126.067 204.97 127.757 204.97 127.757C204.97 127.757 201.12 123.563 190.756 121.461C190.584 121.43 190.411 121.395 190.235 121.361C189.65 121.246 189.075 121.139 188.516 121.039C188.197 120.98 187.882 120.925 187.571 120.87C179.935 119.528 175.147 119.303 173.523 120.714C173.279 118.401 173.95 116.814 174.663 115.911C174.705 115.859 174.746 115.807 174.791 115.755C174.915 115.603 175.054 115.448 175.204 115.285C176.067 114.355 177.286 113.304 178.224 112.713C180.783 111.091 183.106 110.123 185.481 109.625H185.485C186.595 109.393 187.717 109.262 188.877 109.217C189.034 109.21 189.195 109.206 189.349 109.203C189.507 109.196 189.665 109.196 189.818 109.196C189.942 109.196 190.07 109.2 190.197 109.203C190.843 109.22 191.511 109.293 192.19 109.41C192.321 109.431 192.456 109.455 192.591 109.483C195.919 110.143 199.506 111.845 202.328 113.598C202.91 113.961 203.394 114.279 203.836 114.635C203.866 114.656 203.893 114.68 203.919 114.704C204.328 115.047 204.707 115.424 205.09 115.911C205.878 116.91 206.26 118.169 206.388 119.486C206.422 119.825 206.437 120.171 206.44 120.513Z" fill="#EA801A"/>
<path d="M205.995 122.356C205.944 122.75 205.878 123.132 205.805 123.503C203.425 121.053 198.595 119.521 194.911 118.276C185.811 115.209 177.524 115.452 175.254 115.597C175.375 115.449 175.51 115.297 175.657 115.138C179.216 114.818 186.562 114.882 194.065 117.014C201.737 119.194 204.911 121.411 205.995 122.356Z" fill="#FAB355"/>
<path d="M206.401 120.245L206.378 120.234C203.947 119.079 191.99 119.962 188.59 120.777C188.505 120.799 188.423 120.817 188.348 120.838C175.349 124.403 174.917 127.542 174.902 127.717V127.724L174.898 127.721C174.88 127.664 174.682 127.145 174.444 126.334C174.232 125.629 173.99 124.707 173.8 123.674C173.729 123.284 173.666 122.876 173.61 122.458C173.457 121.221 173.405 119.902 173.588 118.657C173.651 118.2 173.748 117.753 173.882 117.324V117.32C174.087 116.651 174.381 116.029 174.783 115.475C177.498 111.76 181.638 109.783 185.578 108.975H185.582C186.58 108.771 187.57 108.639 188.52 108.575L188.948 108.553C189.104 108.546 189.264 108.542 189.417 108.539C189.573 108.532 189.73 108.532 189.882 108.532C190.005 108.532 190.132 108.535 190.259 108.539C190.415 108.546 190.579 108.553 190.743 108.564C191.219 108.603 191.718 108.664 192.236 108.753C192.366 108.775 192.5 108.8 192.634 108.828C193.99 109.09 195.449 109.522 196.887 110.083C197.244 110.223 197.594 110.369 197.948 110.527H197.952C200.16 111.492 202.256 112.747 203.794 114.156C203.824 114.177 203.85 114.202 203.876 114.227C204.092 114.424 204.293 114.628 204.487 114.832C204.636 114.992 204.777 115.153 204.907 115.314C204.952 115.368 204.997 115.422 205.038 115.475C205.648 116.251 206.367 117.406 206.434 119.183C206.449 119.515 206.438 119.869 206.401 120.245Z" fill="url(#paint2_linear_520_208)"/>
<path d="M204.906 115.777C202.673 115.633 194.175 115.354 184.842 118.511C181.1 119.778 176.198 121.338 173.768 123.827C173.697 123.452 173.634 123.059 173.578 122.657C174.696 121.689 177.935 119.437 185.707 117.224C193.37 115.041 200.88 114.982 204.485 115.313C204.634 115.468 204.775 115.623 204.906 115.777ZM206.4 120.525L206.378 120.515C206.378 120.598 206.378 120.68 206.374 120.763C204.548 120.646 197.906 120.388 190.798 121.458C189.184 121.703 187.548 122.016 185.938 122.412C182.091 123.362 177.302 125.235 174.871 127.721L174.868 127.725C174.849 127.669 174.651 127.17 174.413 126.389C175.859 125.29 179.747 122.684 185.427 121.338C186.143 121.169 186.881 121.011 187.634 120.87C195.233 119.43 204.291 119.341 206.326 119.492L206.434 119.503C206.449 119.823 206.438 120.164 206.4 120.525ZM197.939 111.167C194.63 111.191 188.495 111.76 183.06 113.846C180.384 114.875 175.278 117.437 173.556 118.997C173.619 118.556 173.716 118.126 173.85 117.712V117.709C174.767 116.917 177.29 115.041 182.412 113.192C187.973 111.185 194.003 110.599 196.877 110.74C197.235 110.875 197.585 111.016 197.939 111.167Z" fill="#FAB355"/>
<path d="M185.354 129.884C186.197 129.884 186.88 129.203 186.88 128.363C186.88 127.523 186.197 126.843 185.354 126.843C184.511 126.843 183.828 127.523 183.828 128.363C183.828 129.203 184.511 129.884 185.354 129.884Z" fill="#12AB69"/>
<path d="M194.508 129.884C195.351 129.884 196.034 129.203 196.034 128.363C196.034 127.523 195.351 126.843 194.508 126.843C193.666 126.843 192.982 127.523 192.982 128.363C192.982 129.203 193.666 129.884 194.508 129.884Z" fill="#12AB69"/>
<path d="M189.948 137.711C188.017 137.711 186.393 136.454 185.879 134.737C185.864 134.686 185.862 134.632 185.872 134.58C185.882 134.528 185.904 134.479 185.936 134.437C185.969 134.395 186.01 134.361 186.058 134.338C186.106 134.315 186.158 134.303 186.211 134.304H193.68C193.733 134.303 193.786 134.315 193.833 134.338C193.881 134.361 193.923 134.395 193.955 134.437C193.987 134.479 194.009 134.528 194.019 134.58C194.029 134.632 194.027 134.686 194.013 134.737C193.503 136.454 191.879 137.711 189.948 137.711Z" fill="#12AB69"/>
<g clip-path="url(#clip0_520_208)">
<path d="M189.368 135.611V136.495" stroke="white" stroke-width="0.0985657" stroke-miterlimit="10" stroke-linecap="round"/>
<path d="M188.829 135.905V136.298" stroke="white" stroke-width="0.0985657" stroke-miterlimit="10" stroke-linecap="round"/>
<path d="M188.577 136.003V136.2" stroke="white" stroke-width="0.0985657" stroke-miterlimit="10" stroke-linecap="round"/>
<path d="M189.906 135.807V136.298" stroke="white" stroke-width="0.0985657" stroke-miterlimit="10" stroke-linecap="round"/>
<path d="M189.636 135.709V136.494" stroke="white" stroke-width="0.0985657" stroke-miterlimit="10" stroke-linecap="round"/>
<path d="M189.098 135.807V136.298" stroke="white" stroke-width="0.0985657" stroke-miterlimit="10" stroke-linecap="round"/>
<path d="M190.175 135.709V136.494" stroke="white" stroke-width="0.0985657" stroke-miterlimit="10" stroke-linecap="round"/>
<path d="M190.444 135.611V136.593" stroke="white" stroke-width="0.0985657" stroke-miterlimit="10" stroke-linecap="round"/>
<path d="M190.982 135.905V136.298" stroke="white" stroke-width="0.0985657" stroke-miterlimit="10" stroke-linecap="round"/>
<path d="M190.714 135.709V136.396" stroke="white" stroke-width="0.0985657" stroke-miterlimit="10" stroke-linecap="round"/>
<path d="M191.252 136.003V136.2" stroke="white" stroke-width="0.0985657" stroke-miterlimit="10" stroke-linecap="round"/>
</g>
<defs>
<linearGradient id="paint0_linear_520_208" x1="0" y1="0" x2="212.264" y2="382.075" gradientUnits="userSpaceOnUse">
<stop stop-color="#12AB69"/>
<stop offset="1" stop-color="#232438"/>
</linearGradient>
<linearGradient id="paint1_linear_520_208" x1="189.956" y1="109.282" x2="189.956" y2="127.18" gradientUnits="userSpaceOnUse">
<stop offset="0.017" stop-color="#3A9F49"/>
<stop offset="0.328" stop-color="#E3E3E3"/>
<stop offset="0.879" stop-color="#C5C5C5"/>
<stop offset="1" stop-color="#BDBDBD"/>
</linearGradient>
<linearGradient id="paint2_linear_520_208" x1="189.956" y1="108.633" x2="189.956" y2="126.396" gradientUnits="userSpaceOnUse">
<stop stop-color="#FC7030"/>
<stop offset="0.328" stop-color="#E28810"/>
<stop offset="0.872917" stop-color="#FC7030"/>
<stop offset="1" stop-color="#FC7030"/>
</linearGradient>
<clipPath id="clip0_520_208">
<rect width="3.31999" height="1.27678" fill="white" transform="translate(188.291 135.415)"/>
</clipPath>
</defs>
</svg>
